<svg width="14" height="21" viewBox="0 0 14 21" fill="none" xmlns="http://www.w3.org/2000/svg">
<path d="M6.66668 0.932617C2.99074 0.932617 0 3.92336 0 7.5993C0 8.70281 0.275898 9.79695 0.800391 10.7674L6.30211 20.7178C6.37535 20.8504 6.51492 20.9326 6.66668 20.9326C6.81844 20.9326 6.95801 20.8504 7.03125 20.7178L12.535 10.7641C13.0575 9.79695 13.3334 8.70277 13.3334 7.59926C13.3334 3.92336 10.3426 0.932617 6.66668 0.932617ZM6.66668 10.9326C4.82871 10.9326 3.33336 9.43727 3.33336 7.5993C3.33336 5.76133 4.82871 4.26598 6.66668 4.26598C8.50465 4.26598 10 5.76133 10 7.5993C10 9.43727 8.50465 10.9326 6.66668 10.9326Z" fill="white"/>
</svg>
