<svg id="Layer_1" enable-background="new 0 0 26 26" height="512" viewBox="0 0 26 26" width="512" xmlns="http://www.w3.org/2000/svg"><g id="_x34_7"><path d="m24.6846504 10.6859207-3.4213867-2.8834839v-4.0949096c0-.4226685-.3425903-.7652588-.7652588-.7652588h-2.4252319c-.4227295 0-.7653809.3425903-.7653809.7652588v.7590942l-3.6398306-3.0671997c-.3856812-.355896-.9691772-.355896-1.3449707 0l-11.0072021 9.286499c-.2966919.2767944-.3955688.7021484-.2471924 1.0877075.1483765.3759155.5141602.6231689.9197998.6231689h1.592041v11.4817505c0 .5439453.4451294.9889526.9890137.9889526h16.8618774c.5438843 0 .9889526-.4450073.9889526-.9889526v-11.4817504h1.5922241c.4054565 0 .7714233-.2472534.9197388-.6330566.1483145-.3756714.0494376-.8010255-.2471933-1.0778199zm-10.9379263 10.5862427c-.425354.5834351-1.2955933.5834351-1.7307129 0-1.3647461-1.8790283-3.876709-5.5777588-3.876709-7.4766235 0-2.6107788 2.1262207-4.7371826 4.7469482-4.7371826 2.6207886 0 4.7470694 2.1264038 4.7470694 4.7371826.0000001 1.8988647-2.5120229 5.5975952-3.8865957 7.4766235z"/><circle cx="12.886" cy="13.232" r="1.978"/></g></svg>