<svg width="15" height="21" viewBox="0 0 15 21" fill="none" xmlns="http://www.w3.org/2000/svg">
<path d="M7.5 0.932617C3.36458 0.932617 0 3.92336 0 7.5993C0 8.70281 0.310385 9.79695 0.900438 10.7674L7.08986 20.7178C7.17226 20.8504 7.32927 20.9326 7.5 20.9326C7.67073 20.9326 7.82774 20.8504 7.91014 20.7178L14.1018 10.7641C14.6896 9.79695 15 8.70277 15 7.59926C15 3.92336 11.6354 0.932617 7.5 0.932617ZM7.5 10.9326C5.43229 10.9326 3.75002 9.43727 3.75002 7.5993C3.75002 5.76133 5.43229 4.26598 7.5 4.26598C9.56771 4.26598 11.25 5.76133 11.25 7.5993C11.25 9.43727 9.56771 10.9326 7.5 10.9326Z" fill="white"/>
</svg>
