<svg width="20" height="21" viewBox="0 0 20 21" fill="none" xmlns="http://www.w3.org/2000/svg">
<path d="M19.4347 15.6106L16.6436 12.8195C15.6468 11.8227 13.9522 12.2215 13.5535 13.5173C13.2545 14.4145 12.2576 14.9129 11.3605 14.7135C9.3669 14.2151 6.67552 11.6234 6.17712 9.53008C5.87808 8.63291 6.47616 7.63611 7.37329 7.3371C8.66914 6.93838 9.06786 5.24381 8.07105 4.247L5.27999 1.45594C4.48255 0.758176 3.28638 0.758176 2.58862 1.45594L0.694682 3.34987C-1.19925 5.34349 0.894043 10.6266 5.57904 15.3116C10.264 19.9966 15.5471 22.1896 17.5407 20.1959L19.4347 18.302C20.1325 17.5045 20.1325 16.3084 19.4347 15.6106Z" fill="white"/>
</svg>
